<svg width="54" height="54" viewBox="0 0 54 54" fill="none" xmlns="http://www.w3.org/2000/svg">
<circle cx="27" cy="27" r="27" fill="#DFEBEF"/>
<mask id="mask0_79_88" style="mask-type:alpha" maskUnits="userSpaceOnUse" x="0" y="0" width="54" height="54">
<circle cx="27" cy="27" r="27" fill="#DFEBEF"/>
</mask>
<g mask="url(#mask0_79_88)">
<path d="M27.5 34.8333C32.6913 34.8333 37.4125 36.337 40.8857 38.456C42.619 39.5133 44.101 40.7613 45.1713 42.1177C46.2243 43.4502 47 45.0448 47 46.75C47 48.5808 46.1095 50.0238 44.8268 51.053C43.6135 52.028 42.0123 52.6737 40.3115 53.1243C36.8925 54.0278 32.3295 54.3333 27.5 54.3333C22.6705 54.3333 18.1075 54.03 14.6885 53.1243C12.9877 52.6737 11.3865 52.028 10.1732 51.053C8.88833 50.0217 8 48.5808 8 46.75C8 45.0448 8.77567 43.4502 9.82867 42.1155C10.899 40.7613 12.3788 39.5155 14.1143 38.4538C17.5875 36.3392 22.3108 34.8333 27.5 34.8333ZM27.5 11C30.3732 11 33.1287 12.1414 35.1603 14.173C37.192 16.2047 38.3333 18.9602 38.3333 21.8333C38.3333 24.7065 37.192 27.462 35.1603 29.4937C33.1287 31.5253 30.3732 32.6667 27.5 32.6667C24.6268 32.6667 21.8713 31.5253 19.8397 29.4937C17.808 27.462 16.6667 24.7065 16.6667 21.8333C16.6667 18.9602 17.808 16.2047 19.8397 14.173C21.8713 12.1414 24.6268 11 27.5 11Z" fill="white"/>
</g>
</svg>
