<svg width="126" height="16" viewBox="0 0 126 16" fill="none" xmlns="http://www.w3.org/2000/svg">
<path d="M114.711 0.291687L117.511 7.50002C117.689 7.98613 117.859 8.47919 118.022 8.97919L118.511 10.4792H118.622C118.8 9.97919 118.963 9.47919 119.111 8.97919C119.274 8.47919 119.445 7.98613 119.622 7.50002L122.356 0.291687H126V15.7084H123V9.27085C123 8.90974 123.007 8.51391 123.022 8.08335C123.052 7.63891 123.089 7.19446 123.133 6.75002C123.178 6.29169 123.222 5.84724 123.267 5.41669C123.311 4.97224 123.356 4.56946 123.4 4.20835H123.311L121.978 7.83335L119.445 14.3125H117.556L115 7.83335L113.689 4.20835H113.6C113.645 4.56946 113.689 4.97224 113.734 5.41669C113.793 5.84724 113.837 6.29169 113.867 6.75002C113.911 7.19446 113.948 7.63891 113.978 8.08335C114.008 8.51391 114.022 8.90974 114.022 9.27085V15.7084H111.067V0.291687H114.711Z" fill="white"/>
<path d="M102.609 9.87502H100.32V15.7084H97.0309V0.291687H102.764C103.638 0.291687 104.446 0.368076 105.186 0.520853C105.942 0.673631 106.594 0.930575 107.142 1.29169C107.705 1.6528 108.142 2.13196 108.453 2.72919C108.779 3.32641 108.942 4.06946 108.942 4.95835C108.942 6.13891 108.653 7.0903 108.075 7.81252C107.512 8.52085 106.757 9.04863 105.808 9.39585L109.653 15.7084H105.986L102.609 9.87502ZM102.453 7.43752C103.52 7.43752 104.327 7.23613 104.875 6.83335C105.438 6.41669 105.72 5.79169 105.72 4.95835C105.72 4.12502 105.438 3.54863 104.875 3.22919C104.327 2.89585 103.52 2.72919 102.453 2.72919H100.32V7.43752H102.453Z" fill="white"/>
<path d="M86.2839 11.75L85.1284 15.7084H81.7951L87.0617 0.291687H90.9283L96.217 15.7084H92.7727L91.6171 11.75H86.2839ZM90.4172 7.66669C90.1653 6.86113 89.9209 6.0278 89.6838 5.16669C89.4616 4.30558 89.2246 3.45835 88.9727 2.62502H88.8839C88.6765 3.47224 88.4542 4.32641 88.2172 5.18752C87.9802 6.03474 87.7357 6.86113 87.4839 7.66669L86.995 9.35419H90.906L90.4172 7.66669Z" fill="white"/>
<path d="M83.1281 0.291687V2.85419H76.2838V6.87502H82.1281V9.45835H76.2838V15.7084H72.995V0.291687H83.1281Z" fill="white"/>
<path d="M66.5997 0.291687V2.85419H59.7998V6.41669H65.5775V9.00002H59.7998V13.125H66.8441V15.7084H56.511V0.291687H66.5997Z" fill="white"/>
<path d="M48.2003 0.291687C49.1039 0.291687 49.9484 0.37502 50.7335 0.541686C51.5187 0.694465 52.2002 0.958353 52.7779 1.33335C53.3557 1.70835 53.8075 2.20835 54.1335 2.83335C54.4742 3.44446 54.6446 4.20835 54.6446 5.12502C54.6446 6.00002 54.4742 6.76391 54.1335 7.41669C53.8075 8.05558 53.3557 8.58335 52.7779 9.00002C52.215 9.41669 51.5483 9.72919 50.778 9.93752C50.0076 10.132 49.178 10.2292 48.2891 10.2292H46.0892V15.7084H42.8004V0.291687H48.2003ZM48.0669 7.79169C50.3039 7.79169 51.4224 6.9028 51.4224 5.12502C51.4224 4.22224 51.1261 3.59724 50.5335 3.25002C49.9558 2.9028 49.0965 2.72919 47.9558 2.72919H46.0892V7.79169H48.0669Z" fill="white"/>
<path d="M32.0534 11.75L30.8979 15.7084H27.5646L32.8312 0.291687H36.6978L41.9865 15.7084H38.5422L37.3866 11.75H32.0534ZM36.1867 7.66669C35.9348 6.86113 35.6904 6.0278 35.4533 5.16669C35.2311 4.30558 34.9941 3.45835 34.7422 2.62502H34.6534C34.446 3.47224 34.2237 4.32641 33.9867 5.18752C33.7497 6.03474 33.5052 6.86113 33.2534 7.66669L32.7645 9.35419H36.6755L36.1867 7.66669Z" fill="white"/>
<path d="M21.2172 9.87502H18.9284V15.7084H15.6396V0.291687H21.3728C22.2468 0.291687 23.0542 0.368076 23.7949 0.520853C24.5505 0.673631 25.2023 0.930575 25.7504 1.29169C26.3134 1.6528 26.7504 2.13196 27.0615 2.72919C27.3874 3.32641 27.5504 4.06946 27.5504 4.95835C27.5504 6.13891 27.2615 7.0903 26.6838 7.81252C26.1208 8.52085 25.3653 9.04863 24.4171 9.39585L28.2615 15.7084H24.5949L21.2172 9.87502ZM21.0617 7.43752C22.1283 7.43752 22.9357 7.23613 23.4838 6.83335C24.0468 6.41669 24.3283 5.79169 24.3283 4.95835C24.3283 4.12502 24.0468 3.54863 23.4838 3.22919C22.9357 2.89585 22.1283 2.72919 21.0617 2.72919H18.9284V7.43752H21.0617Z" fill="white"/>
<path d="M7.8887 16C6.7628 16 5.71838 15.8264 4.75544 15.4792C3.7925 15.1319 2.95549 14.625 2.24439 13.9583C1.54811 13.2917 0.999977 12.4653 0.599986 11.4792C0.199995 10.4931 0 9.35417 0 8.0625C0 6.78472 0.207402 5.65278 0.622208 4.66667C1.03701 3.66667 1.59996 2.81944 2.31106 2.125C3.02215 1.43056 3.85917 0.902778 4.82211 0.541666C5.78505 0.180556 6.80725 0 7.8887 0C9.07386 0 10.0812 0.201389 10.9109 0.604166C11.7553 1.00694 12.4442 1.46528 12.9775 1.97917L11.222 3.9375C10.822 3.57639 10.3701 3.27083 9.86644 3.02083C9.37756 2.77083 8.75535 2.64583 7.99981 2.64583C7.31835 2.64583 6.68873 2.77083 6.11097 3.02083C5.54802 3.25694 5.05914 3.60417 4.64434 4.0625C4.24435 4.52083 3.92583 5.07639 3.6888 5.72917C3.46659 6.38194 3.35548 7.125 3.35548 7.95833C3.35548 9.63889 3.76287 10.9583 4.57767 11.9167C5.39247 12.8611 6.60725 13.3333 8.22203 13.3333C8.62202 13.3333 9.0072 13.2847 9.37756 13.1875C9.74792 13.0903 10.0516 12.9444 10.2886 12.75V9.70833H7.37761V7.1875H13.2219V14.1458C12.659 14.6597 11.9182 15.0972 10.9997 15.4583C10.0812 15.8194 9.04423 16 7.8887 16Z" fill="white"/>
</svg>
